<svg width="200" height="304" viewBox="0 0 200 304" fill="none" xmlns="http://www.w3.org/2000/svg">
<rect y="60" width="200" height="200" rx="17" fill="#B80F0A"/>
<path d="M18.3906 77.7031H62.6289L89.1914 132.488L105.891 99.2852C109.341 92.1888 111.49 86.9154 112.336 83.4648C113.247 80.0143 114.126 77.8984 114.973 77.1172C115.884 76.3359 116.958 75.9453 118.195 75.9453C119.497 75.9453 120.507 76.3685 121.223 77.2148C121.939 78.0612 122.297 78.9076 122.297 79.7539C122.297 80.6003 122.199 81.4466 122.004 82.293C121.874 83.1393 121.581 84.2786 121.125 85.7109C120.148 88.3802 118.098 93.0026 114.973 99.5781L72.0039 186.395L18.3906 77.7031Z" fill="white"/>
<path d="M95.2773 229.914C95.2773 228.938 95.6029 228.059 96.2539 227.277C96.9701 226.431 97.8815 226.008 98.9883 226.008C100.095 226.008 101.007 226.333 101.723 226.984C101.723 226.984 102.536 227.733 104.164 229.23C110.935 235.155 120.408 238.117 132.582 238.117C140.785 238.117 146.059 236.424 148.402 233.039C149.053 232.128 149.379 231.216 149.379 230.305C149.379 229.328 149.184 228.417 148.793 227.57C148.467 226.659 147.719 225.585 146.547 224.348C145.375 223.046 143.715 221.516 141.566 219.758L132.973 212.824C118.78 201.757 109.047 192.772 103.773 185.871C98.9557 179.556 96.5469 173.111 96.5469 166.535C96.5469 158.267 100.355 151.333 107.973 145.734C115.85 139.875 126.039 136.945 138.539 136.945C147.328 136.945 154.262 137.954 159.34 139.973C164.418 141.991 167.999 143.846 170.082 145.539C172.165 147.167 173.207 148.664 173.207 150.031C173.207 152.831 172.1 154.23 169.887 154.23C168.845 154.23 167.868 153.872 166.957 153.156C166.111 152.375 164.385 151.105 161.781 149.348C159.177 147.525 155.727 146.092 151.43 145.051C147.133 144.009 143.129 143.488 139.418 143.488C135.707 143.488 133.07 144.074 131.508 145.246C130.01 146.418 129.262 147.59 129.262 148.762C129.262 149.868 129.49 150.943 129.945 151.984C130.401 152.961 131.247 154.133 132.484 155.5C135.349 158.885 139.939 162.889 146.254 167.512C152.569 172.134 157.908 176.366 162.27 180.207C166.632 184.048 170.049 187.596 172.523 190.852C177.016 196.711 179.262 202.635 179.262 208.625C179.262 214.615 178.155 219.758 175.941 224.055C173.728 228.286 170.57 231.932 166.469 234.992C157.81 241.568 146.254 244.855 131.801 244.855C120.212 244.855 110.544 242.642 102.797 238.215C97.7839 235.415 95.2773 232.648 95.2773 229.914Z" fill="white"/>
</svg>
